<svg width="74" height="8" viewBox="0 0 74 8" fill="none" xmlns="http://www.w3.org/2000/svg">
<path d="M67.0615 2.73677C65.5864 3.91583 64.3136 4.93333 61.662 4.93333C59.0103 4.93333 57.7363 3.91583 56.2624 2.73677C54.6579 1.4541 52.8399 0 49.3225 0C45.8075 0 43.9908 1.4541 42.3862 2.73677C40.9136 3.91583 39.642 4.93333 36.9916 4.93333C34.3412 4.93333 33.0684 3.91583 31.5945 2.73677C29.9912 1.4541 28.1733 0 24.657 0C21.1408 0 19.3241 1.4541 17.7208 2.738C16.2482 3.91583 14.9766 4.93333 12.3274 4.93333C9.67821 4.93333 8.40664 3.91583 6.93404 2.73677C5.33071 1.4541 3.51524 0 0.000244141 0V2.46667C2.64821 2.46667 3.91978 3.48417 5.39238 4.662C6.99571 5.9459 8.81241 7.4 12.3274 7.4C15.8424 7.4 17.6591 5.9459 19.2637 4.66323C20.735 3.48417 22.0066 2.46667 24.657 2.46667C27.3075 2.46667 28.5803 3.48417 30.0541 4.66323C31.6574 5.9459 33.4754 7.4 36.9916 7.4C40.5078 7.4 42.3245 5.9459 43.9279 4.662C45.4005 3.48417 46.672 2.46667 49.3225 2.46667C51.9741 2.46667 53.2482 3.48417 54.722 4.66323C56.3253 5.9459 58.1445 7.4 61.662 7.4C65.1794 7.4 66.9974 5.9459 68.6019 4.66323C70.0758 3.48417 71.3486 2.46667 74.0002 2.46667V0C70.4828 0 68.6648 1.4541 67.0615 2.73677Z" fill="white"/>
</svg>
