<svg width="58" height="58" viewBox="0 0 58 58" fill="none" xmlns="http://www.w3.org/2000/svg">
<g filter="url(#filter0_d)">
<circle cx="29" cy="25" r="25" fill="white"/>
<path d="M22.2238 24.4561L27.2797 19.4001C27.424 19.2557 27.6164 19.1765 27.8215 19.1765C28.0268 19.1765 28.219 19.2558 28.3634 19.4001L28.8224 19.8592C28.9666 20.0033 29.0461 20.1958 29.0461 20.401C29.0461 20.6061 28.9666 20.8051 28.8224 20.9491L25.8729 23.9052H35.2437C35.6662 23.9052 36 24.2359 36 24.6586V25.3077C36 25.7303 35.6662 26.0944 35.2437 26.0944H25.8394L28.8223 29.0669C28.9665 29.2112 29.0459 29.3985 29.0459 29.6037C29.0459 29.8087 28.9665 29.9987 28.8223 30.1429L28.3632 30.6005C28.2189 30.7449 28.0267 30.8235 27.8214 30.8235C27.6162 30.8235 27.4239 30.7438 27.2796 30.5995L22.2237 25.5436C22.079 25.3988 21.9995 25.2056 22 25.0001C21.9996 24.794 22.079 24.6006 22.2238 24.4561Z" fill="#2B2626"/>
</g>
<defs>
<filter id="filter0_d" x="0" y="0" width="58" height="58" filterUnits="userSpaceOnUse" color-interpolation-filters="sRGB">
<feFlood flood-opacity="0" result="BackgroundImageFix"/>
<feColorMatrix in="SourceAlpha" type="matrix" values="0 0 0 0 0 0 0 0 0 0 0 0 0 0 0 0 0 0 127 0" result="hardAlpha"/>
<feOffset dy="4"/>
<feGaussianBlur stdDeviation="2"/>
<feColorMatrix type="matrix" values="0 0 0 0 0.133333 0 0 0 0 0.12195 0 0 0 0 0.0805556 0 0 0 0.1 0"/>
<feBlend mode="normal" in2="BackgroundImageFix" result="effect1_dropShadow"/>
<feBlend mode="normal" in="SourceGraphic" in2="effect1_dropShadow" result="shape"/>
</filter>
</defs>
</svg>
