<svg width="58" height="58" viewBox="0 0 58 58" fill="none" xmlns="http://www.w3.org/2000/svg">
<g filter="url(#filter0_d)">
<circle cx="29" cy="25" r="25" fill="white"/>
<path d="M35.7762 24.4561L30.7203 19.4001C30.576 19.2557 30.3836 19.1765 30.1785 19.1765C29.9732 19.1765 29.781 19.2558 29.6366 19.4001L29.1776 19.8592C29.0334 20.0033 28.9539 20.1958 28.9539 20.401C28.9539 20.6061 29.0334 20.8051 29.1776 20.9491L32.1271 23.9052H22.7563C22.3338 23.9052 22 24.2359 22 24.6586V25.3077C22 25.7303 22.3338 26.0944 22.7563 26.0944H32.1606L29.1777 29.0669C29.0335 29.2112 28.9541 29.3985 28.9541 29.6037C28.9541 29.8087 29.0335 29.9987 29.1777 30.1429L29.6368 30.6005C29.7811 30.7449 29.9733 30.8235 30.1786 30.8235C30.3838 30.8235 30.5761 30.7438 30.7204 30.5995L35.7763 25.5436C35.921 25.3988 36.0005 25.2056 36 25.0001C36.0004 24.794 35.921 24.6006 35.7762 24.4561Z" fill="#2B2626"/>
</g>
<defs>
<filter id="filter0_d" x="0" y="0" width="58" height="58" filterUnits="userSpaceOnUse" color-interpolation-filters="sRGB">
<feFlood flood-opacity="0" result="BackgroundImageFix"/>
<feColorMatrix in="SourceAlpha" type="matrix" values="0 0 0 0 0 0 0 0 0 0 0 0 0 0 0 0 0 0 127 0" result="hardAlpha"/>
<feOffset dy="4"/>
<feGaussianBlur stdDeviation="2"/>
<feColorMatrix type="matrix" values="0 0 0 0 0.133333 0 0 0 0 0.12195 0 0 0 0 0.0805556 0 0 0 0.1 0"/>
<feBlend mode="normal" in2="BackgroundImageFix" result="effect1_dropShadow"/>
<feBlend mode="normal" in="SourceGraphic" in2="effect1_dropShadow" result="shape"/>
</filter>
</defs>
</svg>
