<svg width="22" height="22" viewBox="0 0 22 22" fill="none" xmlns="http://www.w3.org/2000/svg">
<path d="M20.0938 21.0811L18.7551 6.17249C18.7185 5.76535 18.3773 5.45349 17.9686 5.45349H15.2079V4.20838C15.2079 1.88788 13.3201 0 10.9997 0C8.67944 0 6.79187 1.88788 6.79187 4.20838V5.45349H4.02928C3.62056 5.45349 3.27933 5.76535 3.24279 6.17249L1.89882 21.1397C1.87902 21.3606 1.95293 21.5795 2.10255 21.7431C2.25216 21.9067 2.46368 21.9999 2.6853 21.9999H19.3127C19.3133 21.9999 19.3142 21.9999 19.3148 21.9999C19.751 21.9999 20.1044 21.6463 20.1044 21.2102C20.1043 21.1663 20.1007 21.1231 20.0938 21.0811ZM8.37116 4.20838C8.37116 2.7587 9.55036 1.57929 10.9998 1.57929C12.4494 1.57929 13.6287 2.7587 13.6287 4.20838V5.45349H8.37116V4.20838ZM3.54907 20.4207L4.75122 7.03278H6.79187V8.44487C6.79187 8.88096 7.14532 9.23451 7.58152 9.23451C8.01772 9.23451 8.37116 8.88096 8.37116 8.44487V7.03278H13.6287V8.44487C13.6287 8.88096 13.9822 9.23451 14.4184 9.23451C14.8546 9.23451 15.208 8.88096 15.208 8.44487V7.03278H17.2468L18.4489 20.4207H3.54907Z" fill="black"/>
</svg>
