<svg width="376" height="301" viewBox="0 0 376 301" fill="none" xmlns="http://www.w3.org/2000/svg">
<path d="M323.568 5.63777C290.469 5.11372 248.307 7.32993 237.337 7.50495C212.723 7.89699 142.188 3.8446 117.58 4.00462C105.762 4.08263 65.6071 6.35384 53.8501 7.69797C25.7657 10.9093 5.09693 25.0396 4.23627 45.4235C2.66808 82.536 9.49929 125.733 7.36566 147.491C5.26006 168.965 6.27583 194.533 7.39368 216.02C8.54156 238.091 26.0239 255.16 45.5738 255.804C79.7359 256.931 169.489 259.723 187.258 259.134C192.678 270.465 211.103 296.863 219.203 297C223.27 297.068 248.949 271.702 256.125 261.536C275.934 261.764 320.035 261.984 328.192 261.189C356.9 258.394 369.244 233.794 371.541 215.393C372.769 205.544 371.288 168.118 369.964 147.77C368.529 125.706 372.423 77.5836 371.27 57.4437C369.548 27.3518 342.212 5.93281 323.568 5.63777Z" stroke="#F4F3FA" stroke-width="7" stroke-linejoin="round"/>
</svg>
