<svg width="74" height="8" viewBox="0 0 74 8" fill="none" xmlns="http://www.w3.org/2000/svg">
<path d="M67.0613 3.23677C65.5862 4.41583 64.3134 5.43333 61.6617 5.43333C59.0101 5.43333 57.736 4.41583 56.2622 3.23677C54.6576 1.9541 52.8397 0.5 49.3222 0.5C45.8072 0.5 43.9905 1.9541 42.386 3.23677C40.9134 4.41583 39.6418 5.43333 36.9914 5.43333C34.3409 5.43333 33.0681 4.41583 31.5943 3.23677C29.991 1.9541 28.173 0.5 24.6568 0.5C21.1406 0.5 19.3239 1.9541 17.7205 3.238C16.2479 4.41583 14.9764 5.43333 12.3272 5.43333C9.67797 5.43333 8.4064 4.41583 6.9338 3.23677C5.33047 1.9541 3.515 0.5 0 0.5V2.96667C2.64797 2.96667 3.91953 3.98417 5.39213 5.162C6.99547 6.4459 8.81217 7.9 12.3272 7.9C15.8422 7.9 17.6589 6.4459 19.2634 5.16323C20.7348 3.98417 22.0064 2.96667 24.6568 2.96667C27.3072 2.96667 28.58 3.98417 30.0539 5.16323C31.6572 6.4459 33.4751 7.9 36.9914 7.9C40.5076 7.9 42.3243 6.4459 43.9276 5.162C45.4002 3.98417 46.6718 2.96667 49.3222 2.96667C51.9739 2.96667 53.2479 3.98417 54.7218 5.16323C56.3251 6.4459 58.1443 7.9 61.6617 7.9C65.1792 7.9 66.9971 6.4459 68.6017 5.16323C70.0755 3.98417 71.3483 2.96667 74 2.96667V0.5C70.4825 0.5 68.6646 1.9541 67.0613 3.23677Z" fill="#069AD5"/>
</svg>
